<?xml version="1.0" encoding="UTF-8"?>
<svg width="124px" height="17px" viewBox="0 0 124 17" version="1.1" xmlns="http://www.w3.org/2000/svg" xmlns:xlink="http://www.w3.org/1999/xlink">
    <!-- Generator: Sketch 56.2 (81672) - https://sketch.com -->
    <title>LatitudePay_Logo_Horiz_Blue_RGB</title>
    <desc>Created with Sketch.</desc>
    <g xmlns="http://www.w3.org/2000/svg" fill="#006AFF" transform="translate(0,0)" style="width: 110px; height: 19px;">
        <path transform="scale(0.21)" fill="#0046AA" class="st0" d="M482.41,24.82c-2.4-2.09-5.78-3.14-10.13-3.14h-15.01v34.15h8.92v-9.45h6.09c4.35,0,7.73-1.11,10.13-3.34  c2.4-2.22,3.61-5.35,3.61-9.38C486.02,29.87,484.81,26.92,482.41,24.82z M476.05,37.9c-0.99,0.91-2.4,1.36-4.21,1.36h-5.65V28.79  h5.65c1.82,0,3.22,0.45,4.21,1.34c0.99,0.89,1.48,2.17,1.48,3.82C477.54,35.68,477.04,37,476.05,37.9z M517.58,21.68h-9.16  l-14.66,34.15h9.16l2.39-6.04h14.76l2.34,6.04h9.5L517.58,21.68z M507.98,42.97l4.77-12.18l4.68,12.18H507.98z M558.21,44.92v10.91  h-8.92V45.16l-12.57-23.48h8.92l8.09,14.66l7.89-14.66h8.92L558.21,44.92z M77.54,49.44c0,3.75-3.04,6.78-6.78,6.78  s-6.78-3.04-6.78-6.78c0-3.75,3.04-6.78,6.78-6.78S77.54,45.69,77.54,49.44z M13.57,63.97h63.97v13.57H0V0h13.57V63.97z   M77.54,28.11c0,3.75-3.04,6.78-6.78,6.78s-6.78-3.04-6.78-6.78c0-3.75,3.04-6.78,6.78-6.78S77.54,24.36,77.54,28.11z M63.97,6.78  c0-3.75,3.04-6.78,6.78-6.78s6.78,3.04,6.78,6.78c0,3.75-3.04,6.78-6.78,6.78S63.97,10.53,63.97,6.78z M126.99,50.95h19.9v4.88  h-24.78V21.68h4.88V50.95z M21.32,6.78c0-3.75,3.04-6.78,6.78-6.78s6.78,3.04,6.78,6.78c0,3.75-3.04,6.78-6.78,6.78  S21.32,10.53,21.32,6.78z M42.65,6.78c0-3.75,3.04-6.78,6.78-6.78s6.78,3.04,6.78,6.78c0,3.75-3.04,6.78-6.78,6.78  S42.65,10.53,42.65,6.78z M376.15,21.68l-14.05,0v34.15l14.05,0c9.93,0,17.98-6.11,17.98-17.07  C394.13,27.79,386.08,21.68,376.15,21.68z M375.81,50.95l-8.83,0v-24.4l8.83,0c7.46,0,13.38,4.36,13.38,12.2  C389.19,46.59,383.27,50.95,375.81,50.95z M343.72,41.1c0,6.57-2.62,15.12-14.44,15.12s-14.44-8.56-14.44-15.12V21.68h4.88v18.69  c0,6.15,2.45,11.01,9.56,11.01s9.56-4.86,9.56-11.01V21.68h4.88V41.1z M179.66,21.68h-4.83l-15.46,34.15h5.02l4.28-9.76h17.1  l4.28,9.76h5.12L179.66,21.68z M170.8,41.19l6.41-14.64l6.42,14.64H170.8z M298.02,26.56h-11.68v29.27h-4.88V26.56h-11.68v-4.88  h28.25V26.56z M415.4,26.56v9.76h17.12v4.88H415.4v9.76h19.9v4.88h-24.78V21.68h24.78v4.88H415.4z M252.79,55.83h-4.88V21.68h4.88  V55.83z M230.93,26.56h-11.68v29.27h-4.88V26.56h-11.68v-4.88h28.25V26.56z"/>
    </g>
</svg>